<mxfile host="Electron" modified="2023-06-16T14:21:04.432Z" agent="Mozilla/5.0 (Windows NT 10.0; Win64; x64) AppleWebKit/537.36 (KHTML, like Gecko) draw.io/21.2.8 Chrome/112.0.5615.165 Electron/24.2.0 Safari/537.36" etag="mD5W8n8CdQK0u_uA53On" version="21.2.8" type="device">
  <diagram name="Seite-1" id="mfI8Q2QQ6f5sVtp0Dng9">
    <mxGraphModel dx="1607" dy="1764" grid="1" gridSize="10" guides="1" tooltips="1" connect="1" arrows="1" fold="1" page="1" pageScale="1" pageWidth="827" pageHeight="1169" math="0" shadow="0">
      <root>
        <mxCell id="0" />
        <mxCell id="1" parent="0" />
        <mxCell id="jzypxtbsE4kdqXJijL4x-1" value="SMTP" style="edgeStyle=orthogonalEdgeStyle;rounded=0;orthogonalLoop=1;jettySize=auto;html=1;" edge="1" parent="1" source="jzypxtbsE4kdqXJijL4x-4" target="jzypxtbsE4kdqXJijL4x-5">
          <mxGeometry relative="1" as="geometry" />
        </mxCell>
        <mxCell id="jzypxtbsE4kdqXJijL4x-2" value="REST" style="edgeStyle=orthogonalEdgeStyle;rounded=0;orthogonalLoop=1;jettySize=auto;html=1;" edge="1" parent="1" source="jzypxtbsE4kdqXJijL4x-4" target="jzypxtbsE4kdqXJijL4x-7">
          <mxGeometry relative="1" as="geometry">
            <Array as="points">
              <mxPoint x="160" y="150" />
              <mxPoint x="160" y="150" />
            </Array>
            <mxPoint as="offset" />
          </mxGeometry>
        </mxCell>
        <mxCell id="jzypxtbsE4kdqXJijL4x-3" value="REST" style="edgeStyle=orthogonalEdgeStyle;rounded=0;orthogonalLoop=1;jettySize=auto;html=1;" edge="1" parent="1" source="jzypxtbsE4kdqXJijL4x-4" target="jzypxtbsE4kdqXJijL4x-6">
          <mxGeometry relative="1" as="geometry" />
        </mxCell>
        <mxCell id="jzypxtbsE4kdqXJijL4x-4" value="&lt;i&gt;&lt;b&gt;&amp;lt;&amp;lt;System&amp;gt;&amp;gt;&lt;/b&gt;&lt;br&gt;&lt;/i&gt;MeowMed &lt;br&gt;System" style="rounded=0;whiteSpace=wrap;html=1;" vertex="1" parent="1">
          <mxGeometry x="240" y="120" width="120" height="60" as="geometry" />
        </mxCell>
        <mxCell id="jzypxtbsE4kdqXJijL4x-5" value="&lt;i&gt;&lt;b&gt;&amp;lt;&amp;lt;External&amp;gt;&amp;gt;&lt;br&gt;&lt;/b&gt;&lt;/i&gt;Google Mail" style="rounded=0;whiteSpace=wrap;html=1;" vertex="1" parent="1">
          <mxGeometry x="520" y="120" width="120" height="60" as="geometry" />
        </mxCell>
        <mxCell id="jzypxtbsE4kdqXJijL4x-6" value="&lt;i&gt;&lt;b&gt;&amp;lt;&amp;lt;External&amp;gt;&amp;gt;&lt;/b&gt;&lt;/i&gt;&lt;br&gt;Cat Facts API" style="rounded=0;whiteSpace=wrap;html=1;" vertex="1" parent="1">
          <mxGeometry x="240" y="-20" width="120" height="60" as="geometry" />
        </mxCell>
        <mxCell id="jzypxtbsE4kdqXJijL4x-7" value="&lt;b&gt;&lt;i&gt;&amp;lt;&amp;lt;External&amp;gt;&amp;gt;&lt;/i&gt;&lt;/b&gt;&lt;br&gt;Exchange Rate API" style="rounded=0;whiteSpace=wrap;html=1;" vertex="1" parent="1">
          <mxGeometry x="-40" y="120" width="120" height="60" as="geometry" />
        </mxCell>
        <mxCell id="jzypxtbsE4kdqXJijL4x-8" value="" style="edgeStyle=orthogonalEdgeStyle;rounded=0;orthogonalLoop=1;jettySize=auto;html=1;" edge="1" parent="1" source="jzypxtbsE4kdqXJijL4x-9" target="jzypxtbsE4kdqXJijL4x-4">
          <mxGeometry relative="1" as="geometry" />
        </mxCell>
        <mxCell id="jzypxtbsE4kdqXJijL4x-9" value="Sachbearbeiter" style="shape=umlActor;verticalLabelPosition=bottom;verticalAlign=top;html=1;outlineConnect=0;" vertex="1" parent="1">
          <mxGeometry x="285" y="240" width="30" height="60" as="geometry" />
        </mxCell>
      </root>
    </mxGraphModel>
  </diagram>
</mxfile>
